<svg width="18" height="29" viewBox="0 0 18 29" fill="none" xmlns="http://www.w3.org/2000/svg">
<path d="M13.9556 24.5L15.4671 27.9881C15.7465 28.631 16.5157 28.9351 17.1867 28.668C17.859 28.4036 18.1777 27.6674 17.8992 27.0241L16.388 23.5371L13.9556 24.5Z" fill="#333333"/>
<path d="M14.9641 26.8252L17.3961 25.8623L14.9641 26.8252Z" fill="#333333"/>
<path d="M12.6379 10.0672C12.6379 11.9208 11.0668 13.4231 9.12973 13.4231C7.19059 13.4231 5.61914 11.9208 5.61914 10.0672C5.61914 8.21393 7.19059 6.7124 9.12973 6.7124C11.0664 6.7124 12.6379 8.21393 12.6379 10.0672Z" fill="#333333"/>
<path d="M10.8827 10.0671C10.8827 10.9944 10.0977 11.7458 9.12919 11.7458C8.15946 11.7458 7.37256 10.9944 7.37256 10.0671C7.37256 9.14049 8.15946 8.38916 9.12919 8.38916C10.0977 8.38874 10.8827 9.14049 10.8827 10.0671Z" fill="#333333"/>
<path d="M6.66776 12.4592L1.86679 23.5377L0.66333 28.5093L1.47389 28.8303L4.29957 24.5006L4.97184 22.9511C4.44733 21.7397 5.04825 20.3507 6.31512 19.8499L9.09899 13.4221C8.15213 13.4146 7.2955 13.0489 6.66776 12.4592Z" fill="#333333"/>
<path d="M11.5889 12.4583C10.9608 13.0487 10.1034 13.4144 9.15649 13.4215L13.2861 22.949L15.7173 21.9866L11.5889 12.4583Z" fill="#333333"/>
<path d="M10.4447 5.03422V1.25865C10.4442 0.562845 9.85314 0 9.12855 0C8.40154 0 7.81245 0.562084 7.81201 1.25865L7.81245 5.03422H10.4447Z" fill="#333333"/>
<path d="M9.12953 6.71212C9.35379 6.71212 9.57364 6.73366 9.78644 6.77221V5.03418H8.4707V6.77221C8.68431 6.73328 8.90299 6.71212 9.12953 6.71212Z" fill="#333333"/>
</svg>
