<svg width="69" height="42" fill="none" xmlns="http://www.w3.org/2000/svg"><g clip-path="url(#a)" fill="#333"><path d="m44.635 21.104 1.278 2.95c.237.544.887.801 1.455.575.568-.223.838-.846.602-1.39l-1.278-2.95-2.057.815Z"/><path d="m45.488 23.07 2.057-.814-2.057.815Zm-3.551-8.193 2.91 1.152-2.91-1.152Zm1.583-5.98c0 1.567-1.329 2.838-2.967 2.838-1.64 0-2.97-1.27-2.97-2.838s1.33-2.838 2.97-2.838c1.638 0 2.967 1.27 2.967 2.838Z"/><path d="M42.036 8.896c0 .785-.664 1.42-1.483 1.42-.82 0-1.486-.635-1.486-1.42 0-.783.666-1.419 1.486-1.419.819 0 1.483.636 1.483 1.42ZM38.47 10.92l-4.06 9.37-1.018 4.205.686.271 2.39-3.662.568-1.31c-.443-1.025.065-2.2 1.136-2.623l2.355-5.437a3.03 3.03 0 0 1-2.056-.814Zm4.163-.001c-.531.5-1.256.809-2.057.815l3.492 8.058 2.057-.814-3.492-8.06Zm-.968-6.279V1.446c0-.588-.5-1.064-1.113-1.064-.615 0-1.113.475-1.114 1.064V4.64h2.227Zm-1.112 1.419c.19 0 .376.018.556.05V4.64h-1.113v1.47c.18-.032.365-.05.557-.05ZM25.096 25.94h-3.703V.38h3.703c.819 0 1.481.637 1.481 1.421v22.72c0 .785-.663 1.42-1.481 1.42Z"/><path d="M24.911 2.511a.545.545 0 0 0 .556-.532.545.545 0 0 0-.556-.533.544.544 0 0 0-.556.533c0 .294.25.532.556.532ZM29.17 15.47c0 .292.248.532.555.532.307 0 .556-.24.556-.532a.545.545 0 0 1-.556.532.545.545 0 0 1-.556-.532Z"/><path d="M29.91.38c-.408 0-.74.32-.74.712v14.91l1.11 4.26 1.111-4.26V1.092c0-.392-.331-.71-.74-.71L29.91.38Z"/></g><defs><clipPath id="a"><path fill="#fff" transform="translate(.448 .143)" d="M0 0h68.552v41.527H0z"/></clipPath></defs></svg>