<svg width="18" height="29" fill="none" xmlns="http://www.w3.org/2000/svg"><path d="m13.956 24.5 1.511 3.488c.28.643 1.049.947 1.72.68.672-.264.99-1 .712-1.644l-1.511-3.487-2.432.963Zm1.008 2.325 2.432-.963-2.432.963Zm-2.326-16.758c0 1.854-1.571 3.356-3.508 3.356-1.94 0-3.51-1.502-3.51-3.356 0-1.853 1.57-3.355 3.51-3.355 1.936 0 3.508 1.502 3.508 3.355Z" fill="#333"/><path d="M10.883 10.067c0 .927-.785 1.679-1.754 1.679-.97 0-1.756-.752-1.756-1.679S8.159 8.39 9.129 8.39c.969 0 1.754.751 1.754 1.678ZM6.668 12.46 1.867 23.537.663 28.509l.81.321L4.3 24.5l.672-1.549c-.525-1.211.076-2.6 1.343-3.101L9.1 13.422a3.582 3.582 0 0 1-2.431-.963Zm4.921-.002a3.58 3.58 0 0 1-2.433.963l4.13 9.528 2.431-.962-4.128-9.529Zm-1.144-7.424V1.26C10.445.563 9.853 0 9.129 0c-.727 0-1.317.562-1.317 1.259v3.775h2.633ZM9.13 6.712c.224 0 .444.022.656.06V5.034H8.471v1.738a3.66 3.66 0 0 1 .659-.06Z" fill="#333"/></svg>